<svg xmlns="http://www.w3.org/2000/svg" viewBox="0 0 1200 675" role="img">
<defs>
  <linearGradient id="bg" x1="0" y1="0" x2="1" y2="1"><stop stop-color="#2a1552"/><stop offset=".58" stop-color="#7a3ec5"/><stop offset="1" stop-color="#15102f"/></linearGradient>
  <radialGradient id="glow"><stop stop-color="#ffd95a" stop-opacity=".85"/><stop offset="1" stop-color="#ffd95a" stop-opacity="0"/></radialGradient>
  <filter id="blur"><feGaussianBlur stdDeviation="18"/></filter>
  <pattern id="grid" width="56" height="56" patternUnits="userSpaceOnUse"><path d="M56 0H0V56" fill="none" stroke="#fff" stroke-opacity=".055"/></pattern>
</defs>
<rect width="1200" height="675" rx="32" fill="url(#bg)"/>
<rect width="1200" height="675" rx="32" fill="url(#grid)"/>
<circle cx="950" cy="110" r="240" fill="url(#glow)" opacity=".28"/>

  <ellipse cx="780" cy="520" rx="280" ry="88" fill="#162c30" opacity=".55"/>
  <path d="M690 560c-8-155 28-240 96-255 60 26 79 104 60 255z" fill="#f2d7b5"/>
  <path d="M540 340c70-175 340-220 500-20-60 85-161 122-265 122S602 418 540 340z" fill="#db4e57"/>
  <circle cx="675" cy="300" r="38" fill="#fff0c9"/><circle cx="790" cy="260" r="30" fill="#fff0c9"/><circle cx="905" cy="310" r="42" fill="#fff0c9"/>
  <circle cx="310" cy="185" r="10" fill="#ffd93d"/><circle cx="405" cy="250" r="7" fill="#9ef5d1"/><circle cx="1030" cy="180" r="8" fill="#ffd93d"/>
  <path d="M120 540c100-120 165-148 272-146-66 67-98 149-107 221z" fill="#2f8f72" opacity=".7"/>

<path d="M70 565h260l58-58h168" fill="none" stroke="#fff" stroke-opacity=".14" stroke-width="3"/>
<circle cx="330" cy="565" r="6" fill="#ffd95a"/>
<circle cx="556" cy="507" r="6" fill="#ffd95a"/>
</svg>